<?xml version="1.0" encoding="UTF-8" standalone="no"?>
<svg
   xmlns:dc="http://purl.org/dc/elements/1.1/"
   xmlns:cc="http://creativecommons.org/ns#"
   xmlns:rdf="http://www.w3.org/1999/02/22-rdf-syntax-ns#"
   xmlns:svg="http://www.w3.org/2000/svg"
   xmlns="http://www.w3.org/2000/svg"
   viewBox="0 0 793.70135 1122.52"
   height="1122.52"
   width="793.70135"
   xml:space="preserve"
   id="svg2"
   version="1.1"><metadata
     id="metadata8"><rdf:RDF><cc:Work
         rdf:about=""><dc:format>image/svg+xml</dc:format><dc:type
           rdf:resource="http://purl.org/dc/dcmitype/StillImage" /></cc:Work></rdf:RDF></metadata><defs
     id="defs6"><clipPath
       id="clipPath34"
       clipPathUnits="userSpaceOnUse"><path
         id="path32"
         d="M 0,841.89 H 595.276 V 0 H 0 Z" /></clipPath><linearGradient
       id="linearGradient62"
       spreadMethod="pad"
       gradientTransform="matrix(-36.926083,-17.285931,-17.285931,36.926083,301.77649,479.17691)"
       gradientUnits="userSpaceOnUse"
       y2="0"
       x2="1"
       y1="0"
       x1="0"><stop
         id="stop56"
         offset="0"
         style="stop-opacity:1;stop-color:#3169a3" /><stop
         id="stop58"
         offset="0.50514893"
         style="stop-opacity:1;stop-color:#3169a3" /><stop
         id="stop60"
         offset="1"
         style="stop-opacity:1;stop-color:#73ac85" /></linearGradient><linearGradient
       id="linearGradient84"
       spreadMethod="pad"
       gradientTransform="matrix(-24.128788,-47.385883,-47.385883,24.128788,295.2785,492.19263)"
       gradientUnits="userSpaceOnUse"
       y2="0"
       x2="1"
       y1="0"
       x1="0"><stop
         id="stop78"
         offset="0"
         style="stop-opacity:1;stop-color:#3b83ac" /><stop
         id="stop80"
         offset="0.33897041"
         style="stop-opacity:1;stop-color:#9cbd61" /><stop
         id="stop82"
         offset="1"
         style="stop-opacity:1;stop-color:#9cbd61" /></linearGradient><clipPath
       id="clipPath94"
       clipPathUnits="userSpaceOnUse"><path
         id="path92"
         d="M 0,841.89 H 595.276 V 0 H 0 Z" /></clipPath><linearGradient
       id="linearGradient122"
       spreadMethod="pad"
       gradientTransform="matrix(0,-187.47639,-187.47639,0,127.24654,634.5434)"
       gradientUnits="userSpaceOnUse"
       y2="0"
       x2="1"
       y1="0"
       x1="0"><stop
         id="stop116"
         offset="0"
         style="stop-opacity:1;stop-color:#3169a3" /><stop
         id="stop118"
         offset="0.63168002"
         style="stop-opacity:1;stop-color:#73ac85" /><stop
         id="stop120"
         offset="1"
         style="stop-opacity:1;stop-color:#73ac85" /></linearGradient><linearGradient
       id="linearGradient142"
       spreadMethod="pad"
       gradientTransform="matrix(0,-167.06377,-167.06377,0,134.37401,614.13104)"
       gradientUnits="userSpaceOnUse"
       y2="0"
       x2="1"
       y1="0"
       x1="0"><stop
         id="stop138"
         offset="0"
         style="stop-opacity:1;stop-color:#3b83ac" /><stop
         id="stop140"
         offset="1"
         style="stop-opacity:1;stop-color:#96b868" /></linearGradient><linearGradient
       id="linearGradient162"
       spreadMethod="pad"
       gradientTransform="matrix(0,141.83749,141.83749,0,137.68208,446.30841)"
       gradientUnits="userSpaceOnUse"
       y2="0"
       x2="1"
       y1="0"
       x1="0"><stop
         id="stop158"
         offset="0"
         style="stop-opacity:1;stop-color:#c5cce3" /><stop
         id="stop160"
         offset="1"
         style="stop-opacity:1;stop-color:#aabadf" /></linearGradient><clipPath
       id="clipPath172"
       clipPathUnits="userSpaceOnUse"><path
         id="path170"
         d="M 0,841.89 H 595.276 V 0 H 0 Z" /></clipPath></defs><g
     transform="matrix(1.3333333,0,0,-1.3333333,0,1122.52)"
     id="g10"><path
       id="path12"
       style="fill:#3d526d;fill-opacity:1;fill-rule:nonzero;stroke:none"
       d="m 136.077,503.176 h -25.069 v 7.788 h 25.069 z" /><path
       id="path14"
       style="fill:#3d526d;fill-opacity:1;fill-rule:nonzero;stroke:none"
       d="m 131.453,475.186 h -28.72 v 7.789 h 28.72 z" /><path
       id="path16"
       style="fill:#3d526d;fill-opacity:1;fill-rule:nonzero;stroke:none"
       d="M 137.172,446.467 H 98.109 v 7.788 h 39.063 z" /><g
       transform="translate(144.2305,495.9957)"
       id="g18"><path
         id="path20"
         style="fill:#3d526d;fill-opacity:1;fill-rule:nonzero;stroke:none"
         d="M 0,0 H 9.371 L 47.46,-49.529 h -9.978 z" /></g><g
       transform="translate(191.6909,495.9957)"
       id="g22"><path
         id="path24"
         style="fill:#3d526d;fill-opacity:1;fill-rule:nonzero;stroke:none"
         d="m 0,0 h -9.37 l -38.09,-49.529 h 9.979 z" /></g><path
       id="path26"
       style="fill:#3d526d;fill-opacity:1;fill-rule:nonzero;stroke:none"
       d="m 208.241,430.281 h -8.396 v 65.714 h 8.396 z" /><g
       id="g28"><g
         clip-path="url(#clipPath34)"
         id="g30"><g
           transform="translate(225.0015,452.4298)"
           id="g36"><path
             id="path38"
             style="fill:#3d526d;fill-opacity:1;fill-rule:nonzero;stroke:none"
             d="m 0,0 c -9.876,0 -17.881,8.363 -17.881,18.68 0,10.317 8.005,18.68 17.881,18.68 9.875,0 17.881,-8.363 17.881,-18.68 C 17.881,8.363 9.875,0 0,0 m 1.555,44.296 c -13.543,0 -24.521,-11.469 -24.521,-25.616 0,-14.148 10.978,-25.617 24.521,-25.617 13.543,0 24.521,11.469 24.521,25.617 0,14.147 -10.978,25.616 -24.521,25.616" /></g><g
           transform="translate(390.1309,452.4298)"
           id="g40"><path
             id="path42"
             style="fill:#3d526d;fill-opacity:1;fill-rule:nonzero;stroke:none"
             d="m 0,0 c -9.655,0 -17.481,8.363 -17.481,18.68 0,10.317 7.826,18.68 17.481,18.68 9.655,0 17.482,-8.363 17.482,-18.68 C 17.482,8.363 9.655,0 0,0 M 0.103,44.296 C -14.313,44.296 -26,32.827 -26,18.68 -26,4.532 -14.313,-6.937 0.103,-6.937 c 14.417,0 26.103,11.469 26.103,25.617 0,14.147 -11.686,25.616 -26.103,25.616" /></g></g></g><g
       id="g44"><g
         id="g46"><g
           id="g52"><g
             id="g54"><path
               id="path64"
               style="fill:url(#linearGradient62);stroke:none"
               d="m 264.155,471.109 c 0,-11.241 9.147,-20.386 20.388,-20.386 v 0 c 11.242,0 20.387,9.145 20.387,20.386 v 0 c 0,11.241 -9.145,20.387 -20.387,20.387 v 0 c -11.241,0 -20.388,-9.146 -20.388,-20.387 m 3.111,0 c 0,9.527 7.751,17.278 17.277,17.278 v 0 c 9.527,0 17.277,-7.751 17.277,-17.278 v 0 c 0,-9.526 -7.75,-17.277 -17.277,-17.277 v 0 c -9.526,0 -17.277,7.751 -17.277,17.277" /></g></g></g></g><g
       id="g66"><g
         id="g68"><g
           id="g74"><g
             id="g76"><path
               id="path86"
               style="fill:url(#linearGradient84);stroke:none"
               d="m 257.953,471.109 c 0,-14.661 11.928,-26.59 26.59,-26.59 v 0 c 14.662,0 26.591,11.929 26.591,26.59 v 0 c 0,14.662 -11.929,26.591 -26.591,26.591 v 0 c -14.662,0 -26.59,-11.929 -26.59,-26.591 m 3.043,0 c 0,12.985 10.563,23.547 23.547,23.547 v 0 c 12.983,0 23.547,-10.562 23.547,-23.547 v 0 c 0,-12.984 -10.564,-23.546 -23.547,-23.546 v 0 c -12.984,0 -23.547,10.562 -23.547,23.546" /></g></g></g></g><g
       id="g88"><g
         clip-path="url(#clipPath94)"
         id="g90"><g
           transform="translate(474.6045,480.0538)"
           id="g96"><path
             id="path98"
             style="fill:#3d526d;fill-opacity:1;fill-rule:nonzero;stroke:none"
             d="m 0,0 c -0.213,2.523 -2.275,17.34 -21.354,16.672 0,0 -9.392,1.226 -17.199,-8.589 v 7.859 h -8.397 v -49.286 h 8.397 v 27.341 c 0,3.766 1.44,7.395 4.045,10.114 3.015,3.145 7.394,5.894 13.398,5.625 5.704,-0.257 9.221,-4.044 11.383,-8.342 0.891,-1.772 1.354,-3.729 1.354,-5.713 V -33.344 H 0.023 L 0.023,0 Z" /></g><g
           transform="translate(355.9775,492.8317)"
           id="g100"><path
             id="path102"
             style="fill:#3d526d;fill-opacity:1;fill-rule:nonzero;stroke:none"
             d="m 0,0 -2.678,-6.693 c 0,0 -6.693,4.077 -16.915,3.803 -10.222,-0.274 -10.831,-6.237 -10.222,-8.427 0.608,-2.191 2.391,-6.206 14.825,-7.788 12.434,-1.582 16.328,-5.477 16.328,-11.805 0,-6.328 -2.312,-12.9 -14.847,-15.212 0,0 -15.844,-2.714 -25.799,4.99 l 2.799,6.693 c 0,0 8.519,-5.598 17.525,-5.233 9.005,0.365 11.56,1.582 12.412,7.058 0,0 0.122,7.302 -10.952,7.18 0,0 -21.905,0.365 -20.323,15.09 0,0 0.365,13.021 15.455,13.691 0,0 12.656,2.007 22.392,-3.347" /></g></g></g><g
       id="g104"><g
         id="g106"><g
           id="g112"><g
             id="g114"><path
               id="path124"
               style="fill:url(#linearGradient122);stroke:none"
               d="m 193.62,634.377 c -23.975,-8.363 -46.553,-20.373 -66.185,-36.542 v 0 C 111.514,584.724 97.838,568.932 86.974,551.407 v 0 C 77.965,536.873 70.89,521.122 65.733,504.826 v 0 c -3.828,-12.1 -6.551,-24.517 -8.206,-37.097 v 0 c -0.725,-5.514 -1.502,-11.248 -1.361,-16.83 v 0 c 0.002,-0.076 -10e-4,-0.151 -10e-4,-0.227 v 0 c 0.025,-4.802 7.488,-4.811 7.464,0 v 0 c -0.023,4.488 0.421,9.008 0.923,13.462 v 0 c 0.122,1.095 0.255,2.189 0.397,3.282 v 0 c 0.012,0.088 0.024,0.176 0.036,0.264 v 0 c 0.03,0.22 0.06,0.44 0.09,0.66 v 0 c 0.094,0.667 0.191,1.334 0.292,2 v 0 c 0.403,2.68 0.861,5.352 1.371,8.014 v 0 c 1.22,6.391 2.734,12.724 4.53,18.977 v 0 c 2.112,7.353 4.615,14.595 7.512,21.677 v 0 c 0.173,0.425 0.35,0.849 0.525,1.274 v 0 c 0.067,0.16 0.437,1.035 0.053,0.13 v 0 c 0.09,0.214 0.181,0.427 0.272,0.64 v 0 c 0.422,0.989 0.853,1.976 1.292,2.959 v 0 c 0.855,1.917 1.739,3.821 2.653,5.711 v 0 c 1.941,4.013 4.017,7.96 6.225,11.833 v 0 c 2.26,3.963 4.66,7.847 7.197,11.639 v 0 c 1.309,1.958 2.655,3.892 4.038,5.8 v 0 c 0.702,0.969 1.414,1.931 2.135,2.887 v 0 c 0.33,0.437 0.662,0.873 0.996,1.308 v 0 c 0.037,0.049 0.069,0.09 0.096,0.125 v 0 c 0.033,0.042 0.075,0.096 0.129,0.164 v 0 c 0.239,0.304 0.477,0.61 0.716,0.913 v 0 c 6.344,8.031 13.353,15.533 20.936,22.404 v 0 c 8.463,7.669 16.816,13.928 26.627,20.033 v 0 c 10.6,6.595 22.012,12.297 33.409,16.813 v 0 c 3.149,1.247 6.327,2.422 9.525,3.538 v 0 c 1.902,0.664 3.166,2.555 2.607,4.591 v 0 c -0.421,1.531 -1.986,2.773 -3.598,2.774 v 0 c -0.332,0 -0.666,-0.053 -0.993,-0.167" /></g></g></g></g><g
       id="g126"><g
         id="g128"><g
           id="g134"><g
             id="g136"><path
               id="path144"
               style="fill:url(#linearGradient142);stroke:none"
               d="m 189.238,613.932 c -19.933,-8.25 -38.488,-19.458 -54.509,-33.96 v 0 c -13.197,-11.947 -24.494,-26.01 -33.499,-41.359 v 0 c -7.543,-12.858 -13.521,-26.668 -17.943,-40.9 v 0 c -3.2,-10.301 -5.598,-20.867 -7.072,-31.554 v 0 c -0.69,-5.001 -1.521,-10.22 -1.428,-15.291 v 0 c 0.002,-0.065 -0.001,-0.131 -0.002,-0.196 v 0 c -0.049,-4.804 7.416,-4.808 7.463,0 v 0 c 0.039,3.862 0.458,7.743 0.919,11.573 v 0 c 0.055,0.449 0.111,0.899 0.168,1.349 v 0 c 0.022,0.167 0.045,0.335 0.067,0.503 v 0 c 0.007,0.053 0.014,0.105 0.022,0.158 v 0 c 0.146,1.04 0.296,2.078 0.458,3.115 v 0 c 0.362,2.321 0.768,4.636 1.214,6.943 v 0 c 1.071,5.527 2.377,11.007 3.908,16.425 v 0 c 1.805,6.388 3.925,12.688 6.358,18.863 v 0 c 0.316,0.801 0.637,1.599 0.963,2.395 v 0 c 0.147,0.358 0.295,0.714 0.443,1.071 v 0 c 0.004,0.01 0.078,0.186 0.14,0.334 v 0 c 0.072,0.171 0.198,0.468 0.222,0.523 v 0 c 0.721,1.684 1.466,3.358 2.235,5.021 v 0 c 1.597,3.45 3.297,6.852 5.102,10.198 v 0 c 8.253,15.305 17.822,28.252 30.073,40.377 v 0 c 14.387,14.236 30.984,25.447 49.554,34.077 v 0 c 2.374,1.103 4.804,2.176 7.129,3.138 v 0 c 1.861,0.77 3.188,2.475 2.606,4.591 v 0 c -0.398,1.448 -1.984,2.805 -3.578,2.805 v 0 c -0.341,0 -0.682,-0.062 -1.013,-0.199" /></g></g></g></g><g
       id="g146"><g
         id="g148"><g
           id="g154"><g
             id="g156"><path
               id="path164"
               style="fill:url(#linearGradient162);stroke:none"
               d="m 177.614,587.887 c -14.616,-7.115 -27.898,-16.862 -39.002,-28.741 v 0 c -9.811,-10.494 -17.93,-22.527 -24.322,-35.379 v 0 c -5.532,-11.123 -9.854,-22.849 -13.044,-34.851 v 0 c -2.409,-9.064 -4.744,-18.378 -5.876,-27.688 v 0 c -0.497,-4.097 -1.269,-8.39 -1.155,-12.534 v 0 c 0.002,-0.057 -0.003,-0.116 -0.004,-0.174 v 0 c -0.039,-3.003 5.34,-2.921 5.379,0.083 v 0 c 0.043,3.325 0.358,6.66 0.707,9.963 v 0 c 0.088,0.829 0.181,1.658 0.281,2.485 v 0 c 0.049,0.413 0.1,0.826 0.153,1.239 v 0 c 0.027,0.214 0.055,0.426 0.082,0.638 v 0 c 0.011,0.093 0.024,0.185 0.037,0.278 v 0 c 0.007,0.057 0.012,0.1 0.016,0.132 v 0 c 0.272,1.997 0.576,3.99 0.909,5.979 v 0 c 0.797,4.753 1.766,9.477 2.902,14.159 v 0 c 2.769,11.412 6.516,22.62 11.421,33.295 v 0 c 5.765,12.542 13.068,24.43 22.076,34.909 v 0 c 10.163,11.823 22.352,21.744 36.04,29.216 v 0 c 1.893,1.034 3.814,2.019 5.754,2.963 v 0 c 2.33,1.134 0.889,4.287 -1.279,4.287 v 0 c -0.344,0 -0.706,-0.079 -1.075,-0.259" /></g></g></g></g><g
       id="g166"><g
         clip-path="url(#clipPath172)"
         id="g168"><g
           transform="translate(185.1807,587.2726)"
           id="g174"><path
             id="path176"
             style="fill:#3f80af;fill-opacity:1;fill-rule:nonzero;stroke:none"
             d="m 0,0 c 0,-2.455 -1.991,-4.446 -4.446,-4.446 -2.455,0 -4.446,1.991 -4.446,4.446 0,2.456 1.991,4.446 4.446,4.446 C -1.991,4.446 0,2.456 0,0" /></g></g></g></g></svg>